# xmcd
#
# Track frame offsets: 
#        150
#        10253
#        19443
#        31506
#        47846
#        58428
#        70609
#        80338
#        94867
#        106038
#        115983
#        130069
#        142870
#        154344
#        167780
#        176975
#        191289
#        203870
#        214064
#        228157
#
# Disc length: 3229 seconds
#
# Revision: 2
# Processed by: cddbd v1.5.2PL0 Copyright (c) Steve Scherf et al.
# Submitted via: ExactAudioCopy v0.99pb5
#
DISCID=0d0c9b14
DTITLE=Various Artist - Das groﬂe Country-Festival - CD 3
DYEAR=2006
DGENRE=Country
TTITLE0=Bobby Bare - West Virginia woman
TTITLE1=Frankie Laine - Rawhide
TTITLE2=Waylon Jennings - Don't think twice, it's all right
TTITLE3=Dottie West - Leavin's for unbelievers (Live)
TTITLE4=George Jones - Let a little lovin' come in
TTITLE5=Bobby Bare - Roses are red (my love)
TTITLE6=Dolly Parton - Release me
TTITLE7=Bellamy Brothers - Dancin' cowboys (Neuaufnahme)
TTITLE8=Waylon Jennings - Sally was a good old girl
TTITLE9=George Jones - The race is on (Live)
TTITLE10=Freddy Fender - Mexican rose (Live)
TTITLE11=Ray Griff - My Rocky Mountain home
TTITLE12=Patsy Cline - I've loved and lost again
TTITLE13=Merle Haggard - Games people play (Live)
TTITLE14=Faron Young - I can't help it (if I'm still in love with you)
TTITLE15=Bobby Bare - Leaving on a jet plane
TTITLE16=Oak Ridge Boys - You'll never walk alone
TTITLE17=Carl Perkins - Daddy sang bass
TTITLE18=Jonny Hill - I recall a gipsy woman
TTITLE19=George Jones - A good year for the roses
EXTD=YEAR: 2006
EXTT0=
EXTT1=
EXTT2=
EXTT3=
EXTT4=
EXTT5=
EXTT6=
EXTT7=
EXTT8=
EXTT9=
EXTT10=
EXTT11=
EXTT12=
EXTT13=
EXTT14=
EXTT15=
EXTT16=
EXTT17=
EXTT18=
EXTT19=
PLAYORDER=
